<svg width="25" height="17" viewBox="0 0 25 17" fill="none" xmlns="http://www.w3.org/2000/svg">
<g id="Icon">
<path id="Vector" d="M13.3106 9.17109L9.55812 15.5978L5.80569 9.17109H13.3106ZM14.3159 8.59668H4.79636L9.55812 16.7346L14.3159 8.59668Z" fill="#ffffff"/>
<path id="Vector_2" d="M19.8347 1.17808L23.5871 7.60481H16.0822L19.8347 1.17808ZM19.8347 0.0292969L15.0729 8.16715H24.5964L19.8347 0.0292969Z" fill="#ffffff"/>
<path id="Vector_3" d="M0.234009 0.0292969L4.2266 7.22725L8.58952 0.210039L0.234009 0.0292969Z" fill="#4CAF4F"/>
<path id="Vector_4" d="M9.55822 0.659668L13.7462 7.81746H5.36215L9.55822 0.659668Z" fill="#4CAF4F"/>
<path id="Vector_5" d="M14.8247 9.38037L19.0167 16.735H10.4332L14.6944 9.38037H14.8247Z" fill="#4CAF4F"/>
<path id="Vector_6" d="M15.7322 8.93408L19.8347 16.1762L23.9941 8.93408H15.7322Z" fill="#4CAF4F"/>
</g>
</svg>
